<mxfile host="app.diagrams.net" modified="2024-01-17T18:03:43.581Z" agent="Mozilla/5.0 (X11; Ubuntu; Linux x86_64; rv:121.0) Gecko/20100101 Firefox/121.0" etag="86nasArGv2l_6vxfpFyT" version="22.1.18" type="github">
  <diagram id="R2lEEEUBdFMjLlhIrx00" name="Page-1">
    <mxGraphModel dx="2036" dy="2027" grid="1" gridSize="10" guides="1" tooltips="1" connect="1" arrows="1" fold="1" page="1" pageScale="1" pageWidth="850" pageHeight="1100" math="0" shadow="0" extFonts="Permanent Marker^https://fonts.googleapis.com/css?family=Permanent+Marker">
      <root>
        <mxCell id="0" />
        <mxCell id="1" parent="0" />
        <mxCell id="6v_Sng6bbfKsoRkY_Rp3-7" style="edgeStyle=orthogonalEdgeStyle;rounded=0;orthogonalLoop=1;jettySize=auto;html=1;entryX=0;entryY=0.5;entryDx=0;entryDy=0;fillColor=#FFB570;" edge="1" parent="1" source="6v_Sng6bbfKsoRkY_Rp3-1" target="6v_Sng6bbfKsoRkY_Rp3-4">
          <mxGeometry relative="1" as="geometry" />
        </mxCell>
        <mxCell id="6v_Sng6bbfKsoRkY_Rp3-21" style="edgeStyle=orthogonalEdgeStyle;rounded=0;orthogonalLoop=1;jettySize=auto;html=1;entryX=0.5;entryY=1;entryDx=0;entryDy=0;fillColor=#FFB570;" edge="1" parent="1" source="6v_Sng6bbfKsoRkY_Rp3-1" target="6v_Sng6bbfKsoRkY_Rp3-20">
          <mxGeometry relative="1" as="geometry" />
        </mxCell>
        <mxCell id="6v_Sng6bbfKsoRkY_Rp3-27" style="edgeStyle=orthogonalEdgeStyle;rounded=0;orthogonalLoop=1;jettySize=auto;html=1;fillColor=#FFB570;" edge="1" parent="1" source="6v_Sng6bbfKsoRkY_Rp3-1" target="6v_Sng6bbfKsoRkY_Rp3-16">
          <mxGeometry relative="1" as="geometry" />
        </mxCell>
        <mxCell id="6v_Sng6bbfKsoRkY_Rp3-1" value="Library" style="rounded=0;whiteSpace=wrap;html=1;fillColor=#D5E8D4;strokeColor=#C28A55;" vertex="1" parent="1">
          <mxGeometry x="180" y="210" width="120" height="60" as="geometry" />
        </mxCell>
        <mxCell id="6v_Sng6bbfKsoRkY_Rp3-11" style="edgeStyle=orthogonalEdgeStyle;rounded=0;orthogonalLoop=1;jettySize=auto;html=1;fillColor=#FFB570;" edge="1" parent="1" source="6v_Sng6bbfKsoRkY_Rp3-2" target="6v_Sng6bbfKsoRkY_Rp3-5">
          <mxGeometry relative="1" as="geometry" />
        </mxCell>
        <mxCell id="6v_Sng6bbfKsoRkY_Rp3-25" style="edgeStyle=orthogonalEdgeStyle;rounded=0;orthogonalLoop=1;jettySize=auto;html=1;entryX=0.5;entryY=0;entryDx=0;entryDy=0;fillColor=#FFB570;" edge="1" parent="1" source="6v_Sng6bbfKsoRkY_Rp3-2" target="6v_Sng6bbfKsoRkY_Rp3-13">
          <mxGeometry relative="1" as="geometry" />
        </mxCell>
        <mxCell id="6v_Sng6bbfKsoRkY_Rp3-2" value="Books" style="rounded=0;whiteSpace=wrap;html=1;fillColor=#D5E8D4;strokeColor=#C28A55;" vertex="1" parent="1">
          <mxGeometry x="580" y="210" width="120" height="60" as="geometry" />
        </mxCell>
        <mxCell id="6v_Sng6bbfKsoRkY_Rp3-3" value="Sellers" style="rounded=0;whiteSpace=wrap;html=1;fillColor=#D5E8D4;strokeColor=#C28A55;" vertex="1" parent="1">
          <mxGeometry x="893" y="210" width="120" height="60" as="geometry" />
        </mxCell>
        <mxCell id="6v_Sng6bbfKsoRkY_Rp3-8" style="edgeStyle=orthogonalEdgeStyle;rounded=0;orthogonalLoop=1;jettySize=auto;html=1;entryX=0;entryY=0.5;entryDx=0;entryDy=0;fillColor=#FFB570;" edge="1" parent="1" source="6v_Sng6bbfKsoRkY_Rp3-4" target="6v_Sng6bbfKsoRkY_Rp3-2">
          <mxGeometry relative="1" as="geometry" />
        </mxCell>
        <mxCell id="6v_Sng6bbfKsoRkY_Rp3-4" value="contains" style="rhombus;whiteSpace=wrap;html=1;fillColor=#E6D0DE;" vertex="1" parent="1">
          <mxGeometry x="400" y="130" width="80" height="80" as="geometry" />
        </mxCell>
        <mxCell id="6v_Sng6bbfKsoRkY_Rp3-12" style="edgeStyle=orthogonalEdgeStyle;rounded=0;orthogonalLoop=1;jettySize=auto;html=1;fillColor=#FFB570;" edge="1" parent="1" source="6v_Sng6bbfKsoRkY_Rp3-5" target="6v_Sng6bbfKsoRkY_Rp3-3">
          <mxGeometry relative="1" as="geometry" />
        </mxCell>
        <mxCell id="6v_Sng6bbfKsoRkY_Rp3-5" value="sold by" style="rhombus;whiteSpace=wrap;html=1;fillColor=#E6D0DE;" vertex="1" parent="1">
          <mxGeometry x="754" y="200" width="80" height="80" as="geometry" />
        </mxCell>
        <mxCell id="6v_Sng6bbfKsoRkY_Rp3-9" style="edgeStyle=orthogonalEdgeStyle;rounded=0;orthogonalLoop=1;jettySize=auto;html=1;entryX=0;entryY=0.5;entryDx=0;entryDy=0;fillColor=#FFB570;" edge="1" parent="1" source="6v_Sng6bbfKsoRkY_Rp3-6" target="6v_Sng6bbfKsoRkY_Rp3-2">
          <mxGeometry relative="1" as="geometry" />
        </mxCell>
        <mxCell id="6v_Sng6bbfKsoRkY_Rp3-10" style="edgeStyle=orthogonalEdgeStyle;rounded=0;orthogonalLoop=1;jettySize=auto;html=1;fillColor=#FFB570;" edge="1" parent="1" source="6v_Sng6bbfKsoRkY_Rp3-6" target="6v_Sng6bbfKsoRkY_Rp3-1">
          <mxGeometry relative="1" as="geometry" />
        </mxCell>
        <mxCell id="6v_Sng6bbfKsoRkY_Rp3-6" value="buys" style="rhombus;whiteSpace=wrap;html=1;fillColor=#E6D0DE;" vertex="1" parent="1">
          <mxGeometry x="400" y="270" width="80" height="80" as="geometry" />
        </mxCell>
        <mxCell id="6v_Sng6bbfKsoRkY_Rp3-26" style="edgeStyle=orthogonalEdgeStyle;rounded=0;orthogonalLoop=1;jettySize=auto;html=1;entryX=0.5;entryY=0;entryDx=0;entryDy=0;fillColor=#FFB570;" edge="1" parent="1" source="6v_Sng6bbfKsoRkY_Rp3-13" target="6v_Sng6bbfKsoRkY_Rp3-14">
          <mxGeometry relative="1" as="geometry" />
        </mxCell>
        <mxCell id="6v_Sng6bbfKsoRkY_Rp3-13" value="written by" style="rhombus;whiteSpace=wrap;html=1;fillColor=#E6D0DE;" vertex="1" parent="1">
          <mxGeometry x="600" y="350" width="80" height="80" as="geometry" />
        </mxCell>
        <mxCell id="6v_Sng6bbfKsoRkY_Rp3-14" value="Authors" style="rounded=0;whiteSpace=wrap;html=1;fillColor=#D5E8D4;strokeColor=#C28A55;" vertex="1" parent="1">
          <mxGeometry x="580" y="483" width="120" height="60" as="geometry" />
        </mxCell>
        <mxCell id="6v_Sng6bbfKsoRkY_Rp3-15" value="Members" style="rounded=0;whiteSpace=wrap;html=1;fillColor=#D5E8D4;strokeColor=#C28A55;" vertex="1" parent="1">
          <mxGeometry x="180" y="483" width="120" height="60" as="geometry" />
        </mxCell>
        <mxCell id="6v_Sng6bbfKsoRkY_Rp3-28" style="edgeStyle=orthogonalEdgeStyle;rounded=0;orthogonalLoop=1;jettySize=auto;html=1;fillColor=#FFB570;" edge="1" parent="1" source="6v_Sng6bbfKsoRkY_Rp3-16" target="6v_Sng6bbfKsoRkY_Rp3-15">
          <mxGeometry relative="1" as="geometry" />
        </mxCell>
        <mxCell id="6v_Sng6bbfKsoRkY_Rp3-16" value="has" style="rhombus;whiteSpace=wrap;html=1;fillColor=#E6D0DE;" vertex="1" parent="1">
          <mxGeometry x="200" y="350" width="80" height="80" as="geometry" />
        </mxCell>
        <mxCell id="6v_Sng6bbfKsoRkY_Rp3-24" style="edgeStyle=orthogonalEdgeStyle;rounded=0;orthogonalLoop=1;jettySize=auto;html=1;exitX=0.5;exitY=1;exitDx=0;exitDy=0;fillColor=#FFB570;" edge="1" parent="1" source="6v_Sng6bbfKsoRkY_Rp3-17" target="6v_Sng6bbfKsoRkY_Rp3-2">
          <mxGeometry relative="1" as="geometry" />
        </mxCell>
        <mxCell id="6v_Sng6bbfKsoRkY_Rp3-17" value="publish" style="rhombus;whiteSpace=wrap;html=1;fillColor=#E6D0DE;" vertex="1" parent="1">
          <mxGeometry x="600" y="86" width="80" height="80" as="geometry" />
        </mxCell>
        <mxCell id="6v_Sng6bbfKsoRkY_Rp3-23" style="edgeStyle=orthogonalEdgeStyle;rounded=0;orthogonalLoop=1;jettySize=auto;html=1;entryX=0.5;entryY=0;entryDx=0;entryDy=0;fillColor=#FFB570;" edge="1" parent="1" source="6v_Sng6bbfKsoRkY_Rp3-18" target="6v_Sng6bbfKsoRkY_Rp3-17">
          <mxGeometry relative="1" as="geometry" />
        </mxCell>
        <mxCell id="6v_Sng6bbfKsoRkY_Rp3-18" value="Publisher" style="rounded=0;whiteSpace=wrap;html=1;fillColor=#D5E8D4;strokeColor=#C28A55;" vertex="1" parent="1">
          <mxGeometry x="580" y="-23" width="120" height="60" as="geometry" />
        </mxCell>
        <mxCell id="6v_Sng6bbfKsoRkY_Rp3-19" value="Institute Libraries" style="rounded=0;whiteSpace=wrap;html=1;fillColor=#D5E8D4;strokeColor=#C28A55;" vertex="1" parent="1">
          <mxGeometry x="180" y="-23" width="120" height="60" as="geometry" />
        </mxCell>
        <mxCell id="6v_Sng6bbfKsoRkY_Rp3-22" style="edgeStyle=orthogonalEdgeStyle;rounded=0;orthogonalLoop=1;jettySize=auto;html=1;entryX=0.5;entryY=1;entryDx=0;entryDy=0;fillColor=#FFB570;" edge="1" parent="1" source="6v_Sng6bbfKsoRkY_Rp3-20" target="6v_Sng6bbfKsoRkY_Rp3-19">
          <mxGeometry relative="1" as="geometry" />
        </mxCell>
        <mxCell id="6v_Sng6bbfKsoRkY_Rp3-20" value="has" style="rhombus;whiteSpace=wrap;html=1;fillColor=#E6D0DE;" vertex="1" parent="1">
          <mxGeometry x="200" y="86" width="80" height="80" as="geometry" />
        </mxCell>
        <mxCell id="6v_Sng6bbfKsoRkY_Rp3-34" style="edgeStyle=orthogonalEdgeStyle;rounded=0;orthogonalLoop=1;jettySize=auto;html=1;entryX=0.75;entryY=0;entryDx=0;entryDy=0;fillColor=#FFB570;" edge="1" parent="1" source="6v_Sng6bbfKsoRkY_Rp3-29" target="6v_Sng6bbfKsoRkY_Rp3-19">
          <mxGeometry relative="1" as="geometry">
            <Array as="points">
              <mxPoint x="330" y="-43" />
              <mxPoint x="270" y="-43" />
            </Array>
          </mxGeometry>
        </mxCell>
        <mxCell id="6v_Sng6bbfKsoRkY_Rp3-29" value="&lt;u&gt;InstituteID&lt;/u&gt;" style="ellipse;whiteSpace=wrap;html=1;fillColor=#FFB570;" vertex="1" parent="1">
          <mxGeometry x="270" y="-83" width="120" height="30" as="geometry" />
        </mxCell>
        <mxCell id="6v_Sng6bbfKsoRkY_Rp3-30" value="Name" style="ellipse;whiteSpace=wrap;html=1;fillColor=#FFB570;" vertex="1" parent="1">
          <mxGeometry x="100" y="-83" width="120" height="30" as="geometry" />
        </mxCell>
        <mxCell id="6v_Sng6bbfKsoRkY_Rp3-35" style="edgeStyle=orthogonalEdgeStyle;rounded=0;orthogonalLoop=1;jettySize=auto;html=1;entryX=0;entryY=0.5;entryDx=0;entryDy=0;fillColor=#FFB570;" edge="1" parent="1" source="6v_Sng6bbfKsoRkY_Rp3-31" target="6v_Sng6bbfKsoRkY_Rp3-19">
          <mxGeometry relative="1" as="geometry" />
        </mxCell>
        <mxCell id="6v_Sng6bbfKsoRkY_Rp3-31" value="Location" style="ellipse;whiteSpace=wrap;html=1;fillColor=#FFB570;" vertex="1" parent="1">
          <mxGeometry x="30" y="-8" width="120" height="30" as="geometry" />
        </mxCell>
        <mxCell id="6v_Sng6bbfKsoRkY_Rp3-36" style="edgeStyle=orthogonalEdgeStyle;rounded=0;orthogonalLoop=1;jettySize=auto;html=1;entryX=1;entryY=0.5;entryDx=0;entryDy=0;fillColor=#FFB570;" edge="1" parent="1" source="6v_Sng6bbfKsoRkY_Rp3-32" target="6v_Sng6bbfKsoRkY_Rp3-19">
          <mxGeometry relative="1" as="geometry" />
        </mxCell>
        <mxCell id="6v_Sng6bbfKsoRkY_Rp3-32" value="Contact Information" style="ellipse;whiteSpace=wrap;html=1;fillColor=#FFB570;" vertex="1" parent="1">
          <mxGeometry x="330" y="-8" width="120" height="30" as="geometry" />
        </mxCell>
        <mxCell id="6v_Sng6bbfKsoRkY_Rp3-33" style="edgeStyle=orthogonalEdgeStyle;rounded=0;orthogonalLoop=1;jettySize=auto;html=1;entryX=0.392;entryY=0.042;entryDx=0;entryDy=0;entryPerimeter=0;fillColor=#FFB570;" edge="1" parent="1" source="6v_Sng6bbfKsoRkY_Rp3-30" target="6v_Sng6bbfKsoRkY_Rp3-19">
          <mxGeometry relative="1" as="geometry">
            <Array as="points">
              <mxPoint x="160" y="-43" />
              <mxPoint x="227" y="-43" />
            </Array>
          </mxGeometry>
        </mxCell>
        <mxCell id="6v_Sng6bbfKsoRkY_Rp3-44" style="edgeStyle=orthogonalEdgeStyle;rounded=0;orthogonalLoop=1;jettySize=auto;html=1;entryX=0.25;entryY=1;entryDx=0;entryDy=0;fillColor=#FFB570;" edge="1" parent="1" source="6v_Sng6bbfKsoRkY_Rp3-37" target="6v_Sng6bbfKsoRkY_Rp3-1">
          <mxGeometry relative="1" as="geometry" />
        </mxCell>
        <mxCell id="6v_Sng6bbfKsoRkY_Rp3-37" value="Location" style="ellipse;whiteSpace=wrap;html=1;fillColor=#FFB570;" vertex="1" parent="1">
          <mxGeometry x="30" y="310" width="120" height="30" as="geometry" />
        </mxCell>
        <mxCell id="6v_Sng6bbfKsoRkY_Rp3-43" style="edgeStyle=orthogonalEdgeStyle;rounded=0;orthogonalLoop=1;jettySize=auto;html=1;entryX=0.25;entryY=0;entryDx=0;entryDy=0;fillColor=#FFB570;" edge="1" parent="1" source="6v_Sng6bbfKsoRkY_Rp3-38" target="6v_Sng6bbfKsoRkY_Rp3-1">
          <mxGeometry relative="1" as="geometry" />
        </mxCell>
        <mxCell id="6v_Sng6bbfKsoRkY_Rp3-38" value="&lt;u&gt;LibraryID&lt;/u&gt;" style="ellipse;whiteSpace=wrap;html=1;fillColor=#FFB570;" vertex="1" parent="1">
          <mxGeometry x="30" y="155" width="120" height="30" as="geometry" />
        </mxCell>
        <mxCell id="6v_Sng6bbfKsoRkY_Rp3-54" style="edgeStyle=orthogonalEdgeStyle;rounded=0;orthogonalLoop=1;jettySize=auto;html=1;exitX=0;exitY=0.5;exitDx=0;exitDy=0;entryX=0.75;entryY=0;entryDx=0;entryDy=0;fillColor=#FFB570;" edge="1" parent="1" source="6v_Sng6bbfKsoRkY_Rp3-39" target="6v_Sng6bbfKsoRkY_Rp3-15">
          <mxGeometry relative="1" as="geometry" />
        </mxCell>
        <mxCell id="6v_Sng6bbfKsoRkY_Rp3-39" value="&lt;u&gt;MemberID&lt;/u&gt;" style="ellipse;whiteSpace=wrap;html=1;fillColor=#FFB570;" vertex="1" parent="1">
          <mxGeometry x="300" y="433" width="120" height="30" as="geometry" />
        </mxCell>
        <mxCell id="6v_Sng6bbfKsoRkY_Rp3-40" value="Name" style="ellipse;whiteSpace=wrap;html=1;fillColor=#FFB570;" vertex="1" parent="1">
          <mxGeometry x="30" y="200" width="120" height="30" as="geometry" />
        </mxCell>
        <mxCell id="6v_Sng6bbfKsoRkY_Rp3-55" style="edgeStyle=orthogonalEdgeStyle;rounded=0;orthogonalLoop=1;jettySize=auto;html=1;entryX=0.75;entryY=1;entryDx=0;entryDy=0;fillColor=#FFB570;" edge="1" parent="1" source="6v_Sng6bbfKsoRkY_Rp3-41" target="6v_Sng6bbfKsoRkY_Rp3-15">
          <mxGeometry relative="1" as="geometry">
            <Array as="points">
              <mxPoint x="270" y="578" />
            </Array>
          </mxGeometry>
        </mxCell>
        <mxCell id="6v_Sng6bbfKsoRkY_Rp3-41" value="Name" style="ellipse;whiteSpace=wrap;html=1;fillColor=#FFB570;" vertex="1" parent="1">
          <mxGeometry x="300" y="563" width="120" height="30" as="geometry" />
        </mxCell>
        <mxCell id="6v_Sng6bbfKsoRkY_Rp3-46" style="edgeStyle=orthogonalEdgeStyle;rounded=0;orthogonalLoop=1;jettySize=auto;html=1;entryX=0;entryY=0.75;entryDx=0;entryDy=0;fillColor=#FFB570;" edge="1" parent="1" source="6v_Sng6bbfKsoRkY_Rp3-42" target="6v_Sng6bbfKsoRkY_Rp3-1">
          <mxGeometry relative="1" as="geometry">
            <Array as="points">
              <mxPoint x="160" y="275" />
              <mxPoint x="160" y="255" />
            </Array>
          </mxGeometry>
        </mxCell>
        <mxCell id="6v_Sng6bbfKsoRkY_Rp3-42" value="Contact Information" style="ellipse;whiteSpace=wrap;html=1;fillColor=#FFB570;" vertex="1" parent="1">
          <mxGeometry x="30" y="260" width="120" height="30" as="geometry" />
        </mxCell>
        <mxCell id="6v_Sng6bbfKsoRkY_Rp3-49" style="edgeStyle=orthogonalEdgeStyle;rounded=0;orthogonalLoop=1;jettySize=auto;html=1;exitX=1;exitY=0.5;exitDx=0;exitDy=0;entryX=0.006;entryY=0.328;entryDx=0;entryDy=0;entryPerimeter=0;fillColor=#FFB570;" edge="1" parent="1" source="6v_Sng6bbfKsoRkY_Rp3-40" target="6v_Sng6bbfKsoRkY_Rp3-1">
          <mxGeometry relative="1" as="geometry">
            <Array as="points">
              <mxPoint x="160" y="215" />
              <mxPoint x="160" y="230" />
            </Array>
          </mxGeometry>
        </mxCell>
        <mxCell id="6v_Sng6bbfKsoRkY_Rp3-50" value="Membership Type" style="ellipse;whiteSpace=wrap;html=1;fillColor=#FFB570;" vertex="1" parent="1">
          <mxGeometry x="40" y="433" width="120" height="30" as="geometry" />
        </mxCell>
        <mxCell id="6v_Sng6bbfKsoRkY_Rp3-52" style="edgeStyle=orthogonalEdgeStyle;rounded=0;orthogonalLoop=1;jettySize=auto;html=1;entryX=0.25;entryY=1;entryDx=0;entryDy=0;fillColor=#FFB570;" edge="1" parent="1" source="6v_Sng6bbfKsoRkY_Rp3-51" target="6v_Sng6bbfKsoRkY_Rp3-15">
          <mxGeometry relative="1" as="geometry" />
        </mxCell>
        <mxCell id="6v_Sng6bbfKsoRkY_Rp3-51" value="Contact Information" style="ellipse;whiteSpace=wrap;html=1;fillColor=#FFB570;" vertex="1" parent="1">
          <mxGeometry x="40" y="563" width="120" height="30" as="geometry" />
        </mxCell>
        <mxCell id="6v_Sng6bbfKsoRkY_Rp3-53" style="edgeStyle=orthogonalEdgeStyle;rounded=0;orthogonalLoop=1;jettySize=auto;html=1;entryX=0.21;entryY=0.024;entryDx=0;entryDy=0;entryPerimeter=0;fillColor=#FFB570;" edge="1" parent="1" source="6v_Sng6bbfKsoRkY_Rp3-50" target="6v_Sng6bbfKsoRkY_Rp3-15">
          <mxGeometry relative="1" as="geometry" />
        </mxCell>
        <mxCell id="6v_Sng6bbfKsoRkY_Rp3-68" style="edgeStyle=orthogonalEdgeStyle;rounded=0;orthogonalLoop=1;jettySize=auto;html=1;entryX=0.75;entryY=0;entryDx=0;entryDy=0;fillColor=#FFB570;" edge="1" parent="1" source="6v_Sng6bbfKsoRkY_Rp3-56" target="6v_Sng6bbfKsoRkY_Rp3-18">
          <mxGeometry relative="1" as="geometry">
            <Array as="points">
              <mxPoint x="800" y="-40" />
              <mxPoint x="670" y="-40" />
            </Array>
          </mxGeometry>
        </mxCell>
        <mxCell id="6v_Sng6bbfKsoRkY_Rp3-56" value="Name" style="ellipse;whiteSpace=wrap;html=1;fillColor=#FFB570;" vertex="1" parent="1">
          <mxGeometry x="740" y="-83" width="120" height="30" as="geometry" />
        </mxCell>
        <mxCell id="6v_Sng6bbfKsoRkY_Rp3-60" style="edgeStyle=orthogonalEdgeStyle;rounded=0;orthogonalLoop=1;jettySize=auto;html=1;exitX=0;exitY=0.5;exitDx=0;exitDy=0;entryX=1;entryY=0.5;entryDx=0;entryDy=0;fillColor=#FFB570;" edge="1" parent="1" source="6v_Sng6bbfKsoRkY_Rp3-57" target="6v_Sng6bbfKsoRkY_Rp3-18">
          <mxGeometry relative="1" as="geometry" />
        </mxCell>
        <mxCell id="6v_Sng6bbfKsoRkY_Rp3-57" value="Contact Information" style="ellipse;whiteSpace=wrap;html=1;fillColor=#FFB570;" vertex="1" parent="1">
          <mxGeometry x="740" y="-8" width="120" height="30" as="geometry" />
        </mxCell>
        <mxCell id="6v_Sng6bbfKsoRkY_Rp3-61" style="edgeStyle=orthogonalEdgeStyle;rounded=0;orthogonalLoop=1;jettySize=auto;html=1;exitX=0.5;exitY=1;exitDx=0;exitDy=0;entryX=0.5;entryY=0;entryDx=0;entryDy=0;fillColor=#FFB570;" edge="1" parent="1" source="6v_Sng6bbfKsoRkY_Rp3-58" target="6v_Sng6bbfKsoRkY_Rp3-18">
          <mxGeometry relative="1" as="geometry" />
        </mxCell>
        <mxCell id="6v_Sng6bbfKsoRkY_Rp3-58" value="Location" style="ellipse;whiteSpace=wrap;html=1;fillColor=#FFB570;" vertex="1" parent="1">
          <mxGeometry x="580" y="-83" width="120" height="30" as="geometry" />
        </mxCell>
        <mxCell id="6v_Sng6bbfKsoRkY_Rp3-66" style="edgeStyle=orthogonalEdgeStyle;rounded=0;orthogonalLoop=1;jettySize=auto;html=1;entryX=0.25;entryY=0;entryDx=0;entryDy=0;fillColor=#FFB570;" edge="1" parent="1" source="6v_Sng6bbfKsoRkY_Rp3-59" target="6v_Sng6bbfKsoRkY_Rp3-18">
          <mxGeometry relative="1" as="geometry">
            <Array as="points">
              <mxPoint x="500" y="-40" />
              <mxPoint x="610" y="-40" />
            </Array>
          </mxGeometry>
        </mxCell>
        <mxCell id="6v_Sng6bbfKsoRkY_Rp3-59" value="&lt;u&gt;PublisherID&lt;/u&gt;" style="ellipse;whiteSpace=wrap;html=1;fillColor=#FFB570;" vertex="1" parent="1">
          <mxGeometry x="440" y="-83" width="120" height="30" as="geometry" />
        </mxCell>
        <mxCell id="6v_Sng6bbfKsoRkY_Rp3-76" style="edgeStyle=orthogonalEdgeStyle;rounded=0;orthogonalLoop=1;jettySize=auto;html=1;fillColor=#FFB570;" edge="1" parent="1" source="6v_Sng6bbfKsoRkY_Rp3-69" target="6v_Sng6bbfKsoRkY_Rp3-3">
          <mxGeometry relative="1" as="geometry" />
        </mxCell>
        <mxCell id="6v_Sng6bbfKsoRkY_Rp3-69" value="Name" style="ellipse;whiteSpace=wrap;html=1;fillColor=#FFB570;" vertex="1" parent="1">
          <mxGeometry x="893" y="86" width="120" height="30" as="geometry" />
        </mxCell>
        <mxCell id="6v_Sng6bbfKsoRkY_Rp3-73" style="edgeStyle=orthogonalEdgeStyle;rounded=0;orthogonalLoop=1;jettySize=auto;html=1;entryX=1;entryY=0.5;entryDx=0;entryDy=0;fillColor=#FFB570;" edge="1" parent="1" source="6v_Sng6bbfKsoRkY_Rp3-70" target="6v_Sng6bbfKsoRkY_Rp3-3">
          <mxGeometry relative="1" as="geometry" />
        </mxCell>
        <mxCell id="6v_Sng6bbfKsoRkY_Rp3-70" value="Location" style="ellipse;whiteSpace=wrap;html=1;fillColor=#FFB570;" vertex="1" parent="1">
          <mxGeometry x="1053" y="310" width="120" height="30" as="geometry" />
        </mxCell>
        <mxCell id="6v_Sng6bbfKsoRkY_Rp3-74" style="edgeStyle=orthogonalEdgeStyle;rounded=0;orthogonalLoop=1;jettySize=auto;html=1;entryX=1;entryY=0.25;entryDx=0;entryDy=0;fillColor=#FFB570;" edge="1" parent="1" source="6v_Sng6bbfKsoRkY_Rp3-71" target="6v_Sng6bbfKsoRkY_Rp3-3">
          <mxGeometry relative="1" as="geometry" />
        </mxCell>
        <mxCell id="6v_Sng6bbfKsoRkY_Rp3-71" value="Contact Information" style="ellipse;whiteSpace=wrap;html=1;fillColor=#FFB570;" vertex="1" parent="1">
          <mxGeometry x="1053" y="125" width="120" height="30" as="geometry" />
        </mxCell>
        <mxCell id="6v_Sng6bbfKsoRkY_Rp3-75" style="edgeStyle=orthogonalEdgeStyle;rounded=0;orthogonalLoop=1;jettySize=auto;html=1;entryX=0.5;entryY=1;entryDx=0;entryDy=0;fillColor=#FFB570;" edge="1" parent="1" source="6v_Sng6bbfKsoRkY_Rp3-72" target="6v_Sng6bbfKsoRkY_Rp3-3">
          <mxGeometry relative="1" as="geometry" />
        </mxCell>
        <mxCell id="6v_Sng6bbfKsoRkY_Rp3-72" value="&lt;u&gt;SellerID&lt;/u&gt;" style="ellipse;whiteSpace=wrap;html=1;fillColor=#FFB570;" vertex="1" parent="1">
          <mxGeometry x="893" y="350" width="120" height="30" as="geometry" />
        </mxCell>
        <mxCell id="6v_Sng6bbfKsoRkY_Rp3-85" style="edgeStyle=orthogonalEdgeStyle;rounded=0;orthogonalLoop=1;jettySize=auto;html=1;exitX=1;exitY=0.5;exitDx=0;exitDy=0;entryX=0.25;entryY=1;entryDx=0;entryDy=0;fillColor=#FFB570;" edge="1" parent="1" source="6v_Sng6bbfKsoRkY_Rp3-77" target="6v_Sng6bbfKsoRkY_Rp3-2">
          <mxGeometry relative="1" as="geometry" />
        </mxCell>
        <mxCell id="6v_Sng6bbfKsoRkY_Rp3-77" value="Price" style="ellipse;whiteSpace=wrap;html=1;fillColor=#FFB570;" vertex="1" parent="1">
          <mxGeometry x="470" y="340" width="120" height="30" as="geometry" />
        </mxCell>
        <mxCell id="6v_Sng6bbfKsoRkY_Rp3-88" style="edgeStyle=orthogonalEdgeStyle;rounded=0;orthogonalLoop=1;jettySize=auto;html=1;exitX=0;exitY=0.5;exitDx=0;exitDy=0;entryX=0.75;entryY=0;entryDx=0;entryDy=0;fillColor=#FFB570;" edge="1" parent="1" source="6v_Sng6bbfKsoRkY_Rp3-78" target="6v_Sng6bbfKsoRkY_Rp3-2">
          <mxGeometry relative="1" as="geometry" />
        </mxCell>
        <mxCell id="6v_Sng6bbfKsoRkY_Rp3-78" value="Genre" style="ellipse;whiteSpace=wrap;html=1;fillColor=#FFB570;" vertex="1" parent="1">
          <mxGeometry x="700" y="130" width="120" height="30" as="geometry" />
        </mxCell>
        <mxCell id="6v_Sng6bbfKsoRkY_Rp3-86" style="edgeStyle=orthogonalEdgeStyle;rounded=0;orthogonalLoop=1;jettySize=auto;html=1;exitX=1;exitY=0.5;exitDx=0;exitDy=0;entryX=0.25;entryY=0;entryDx=0;entryDy=0;fillColor=#FFB570;" edge="1" parent="1" source="6v_Sng6bbfKsoRkY_Rp3-79" target="6v_Sng6bbfKsoRkY_Rp3-2">
          <mxGeometry relative="1" as="geometry" />
        </mxCell>
        <mxCell id="6v_Sng6bbfKsoRkY_Rp3-79" value="ISBN" style="ellipse;whiteSpace=wrap;html=1;fillColor=#FFB570;" vertex="1" parent="1">
          <mxGeometry x="470" y="130" width="120" height="30" as="geometry" />
        </mxCell>
        <mxCell id="6v_Sng6bbfKsoRkY_Rp3-80" value="Title" style="ellipse;whiteSpace=wrap;html=1;fillColor=#FFB570;" vertex="1" parent="1">
          <mxGeometry x="690" y="340" width="120" height="30" as="geometry" />
        </mxCell>
        <mxCell id="6v_Sng6bbfKsoRkY_Rp3-82" style="edgeStyle=orthogonalEdgeStyle;rounded=0;orthogonalLoop=1;jettySize=auto;html=1;entryX=1;entryY=1;entryDx=0;entryDy=0;fillColor=#FFB570;" edge="1" parent="1" source="6v_Sng6bbfKsoRkY_Rp3-81" target="6v_Sng6bbfKsoRkY_Rp3-2">
          <mxGeometry relative="1" as="geometry" />
        </mxCell>
        <mxCell id="6v_Sng6bbfKsoRkY_Rp3-81" value="&lt;u&gt;BookID&lt;/u&gt;" style="ellipse;whiteSpace=wrap;html=1;fillColor=#FFB570;" vertex="1" parent="1">
          <mxGeometry x="760" y="300" width="120" height="30" as="geometry" />
        </mxCell>
        <mxCell id="6v_Sng6bbfKsoRkY_Rp3-83" style="edgeStyle=orthogonalEdgeStyle;rounded=0;orthogonalLoop=1;jettySize=auto;html=1;exitX=0;exitY=0.5;exitDx=0;exitDy=0;entryX=0.702;entryY=1.015;entryDx=0;entryDy=0;entryPerimeter=0;fillColor=#FFB570;" edge="1" parent="1" source="6v_Sng6bbfKsoRkY_Rp3-80" target="6v_Sng6bbfKsoRkY_Rp3-2">
          <mxGeometry relative="1" as="geometry" />
        </mxCell>
        <mxCell id="6v_Sng6bbfKsoRkY_Rp3-93" style="edgeStyle=orthogonalEdgeStyle;rounded=0;orthogonalLoop=1;jettySize=auto;html=1;fillColor=#FFB570;" edge="1" parent="1" source="6v_Sng6bbfKsoRkY_Rp3-89" target="6v_Sng6bbfKsoRkY_Rp3-14">
          <mxGeometry relative="1" as="geometry" />
        </mxCell>
        <mxCell id="6v_Sng6bbfKsoRkY_Rp3-89" value="&lt;u&gt;AuthorID&lt;/u&gt;" style="ellipse;whiteSpace=wrap;html=1;fillColor=#FFB570;" vertex="1" parent="1">
          <mxGeometry x="420" y="498" width="120" height="30" as="geometry" />
        </mxCell>
        <mxCell id="6v_Sng6bbfKsoRkY_Rp3-92" style="edgeStyle=orthogonalEdgeStyle;rounded=0;orthogonalLoop=1;jettySize=auto;html=1;fillColor=#FFB570;" edge="1" parent="1" source="6v_Sng6bbfKsoRkY_Rp3-90" target="6v_Sng6bbfKsoRkY_Rp3-14">
          <mxGeometry relative="1" as="geometry" />
        </mxCell>
        <mxCell id="6v_Sng6bbfKsoRkY_Rp3-90" value="Name" style="ellipse;whiteSpace=wrap;html=1;fillColor=#FFB570;" vertex="1" parent="1">
          <mxGeometry x="740" y="498" width="120" height="30" as="geometry" />
        </mxCell>
        <mxCell id="6v_Sng6bbfKsoRkY_Rp3-94" style="edgeStyle=orthogonalEdgeStyle;rounded=0;orthogonalLoop=1;jettySize=auto;html=1;exitX=0.5;exitY=0;exitDx=0;exitDy=0;entryX=0.5;entryY=1;entryDx=0;entryDy=0;fillColor=#FFB570;" edge="1" parent="1" source="6v_Sng6bbfKsoRkY_Rp3-91" target="6v_Sng6bbfKsoRkY_Rp3-14">
          <mxGeometry relative="1" as="geometry" />
        </mxCell>
        <mxCell id="6v_Sng6bbfKsoRkY_Rp3-91" value="Contact Information" style="ellipse;whiteSpace=wrap;html=1;fillColor=#FFB570;" vertex="1" parent="1">
          <mxGeometry x="580" y="563" width="120" height="30" as="geometry" />
        </mxCell>
      </root>
    </mxGraphModel>
  </diagram>
</mxfile>
